<svg xmlns="http://www.w3.org/2000/svg" xmlns:xlink="http://www.w3.org/1999/xlink" aria-hidden="true" focusable="false" width="2em" height="2em" style="-ms-transform: rotate(360deg); -webkit-transform: rotate(360deg); transform: rotate(360deg);" preserveAspectRatio="xMidYMid meet" viewBox="0 0 24 24"><path d="M14.923 8.526H9.077C7.93 8.526 7 9.446 7 10.58v2.89c0 1.135.93 2.054 2.077 2.054h5.846c1.147 0 2.077-.92 2.077-2.054v-2.89c0-1.135-.93-2.054-2.077-2.054zm-1.404 3.64l-2.735 1.29a.11.11 0 0 1-.157-.099v-2.66a.11.11 0 0 1 .16-.097l2.734 1.37a.11.11 0 0 1-.002.196z" fill="#626262"/><path d="M6 4a2 2 0 0 0-2 2v12a2 2 0 0 0 2 2h12a2 2 0 0 0 2-2V6a2 2 0 0 0-2-2H6zm0-2h12a4 4 0 0 1 4 4v12a4 4 0 0 1-4 4H6a4 4 0 0 1-4-4V6a4 4 0 0 1 4-4z" fill="#626262"/></svg>
